<svg width="24" height="24" viewBox="0 0 24 24" fill="none" xmlns="http://www.w3.org/2000/svg">
  <!-- Apple body -->
  <path d="M12 3C8 3 5 6 5 10C5 15 7 19 12 21C17 19 19 15 19 10C19 6 16 3 12 3Z" stroke="var(--icon-color, #3498db)" stroke-width="1.5" fill="none"/>
  <!-- Apple stem -->
  <path d="M12 3V1" stroke="var(--icon-color, #3498db)" stroke-width="1.5" stroke-linecap="round"/>
  <!-- Leaf -->
  <path d="M12 2C13 1.5 14.5 1.5 15.5 2C15.5 2.5 15 3 14.5 3C13.5 3 12.5 2.5 12 2Z" fill="var(--icon-color, #3498db)" opacity="0.7"/>
  <!-- Apple highlight -->
  <ellipse cx="10" cy="7" rx="1.5" ry="2" fill="var(--icon-color, #3498db)" opacity="0.3"/>
  <!-- Small nutrition symbols -->
  <circle cx="9" cy="12" r="0.5" fill="var(--icon-color, #3498db)" opacity="0.6"/>
  <circle cx="15" cy="11" r="0.5" fill="var(--icon-color, #3498db)" opacity="0.6"/>
  <circle cx="12" cy="15" r="0.5" fill="var(--icon-color, #3498db)" opacity="0.6"/>
</svg>