<svg width="24" height="24" viewBox="0 0 24 24" fill="none" xmlns="http://www.w3.org/2000/svg">
  <!-- Heart shape -->
  <path d="M12 21C12 21 3 14 3 8C3 5.5 5 3.5 7.5 3.5C9.5 3.5 11 5 12 6.5C13 5 14.5 3.5 16.5 3.5C19 3.5 21 5.5 21 8C21 14 12 21 12 21Z" stroke="var(--icon-color, #3498db)" stroke-width="1.5" fill="var(--icon-color, #3498db)" opacity="0.2"/>
  <!-- Radiating light rays -->
  <path d="M12 2V4" stroke="var(--icon-color, #3498db)" stroke-width="1" stroke-linecap="round" opacity="0.7"/>
  <path d="M20 8H18" stroke="var(--icon-color, #3498db)" stroke-width="1" stroke-linecap="round" opacity="0.7"/>
  <path d="M6 8H4" stroke="var(--icon-color, #3498db)" stroke-width="1" stroke-linecap="round" opacity="0.7"/>
  <path d="M18.36 4.64L17.07 5.93" stroke="var(--icon-color, #3498db)" stroke-width="1" stroke-linecap="round" opacity="0.6"/>
  <path d="M5.64 4.64L6.93 5.93" stroke="var(--icon-color, #3498db)" stroke-width="1" stroke-linecap="round" opacity="0.6"/>
  <path d="M18.36 11.36L17.07 10.07" stroke="var(--icon-color, #3498db)" stroke-width="1" stroke-linecap="round" opacity="0.5"/>
  <path d="M5.64 11.36L6.93 10.07" stroke="var(--icon-color, #3498db)" stroke-width="1" stroke-linecap="round" opacity="0.5"/>
  <!-- Inner heart glow -->
  <path d="M12 18C12 18 6 13 6 8.5C6 7 7 6 8.5 6C10 6 11 7 12 8C13 7 14 6 15.5 6C17 6 18 7 18 8.5C18 13 12 18 12 18Z" fill="var(--icon-color, #3498db)" opacity="0.1"/>
</svg>